<svg width="14" height="16" viewBox="0 0 14 16" fill="none" xmlns="http://www.w3.org/2000/svg">
<path d="M11.6647 15.3581C10.7601 16.2024 9.77242 16.0691 8.82168 15.6691C7.81555 15.2603 6.8925 15.2425 5.83099 15.6691C4.5018 16.2202 3.80028 16.0602 3.00645 15.3581C-1.49804 10.8875 -0.833444 4.07949 4.28026 3.83063C5.52638 3.89284 6.39405 4.48832 7.12326 4.54165C8.21246 4.32834 9.25551 3.71509 10.4186 3.79508C11.8124 3.90173 12.8646 4.435 13.5569 5.39487C10.677 7.05689 11.3601 10.7098 14 11.7319C13.4739 13.065 12.7908 14.3893 11.6554 15.367L11.6647 15.3581ZM7.03096 3.7773C6.8925 1.79533 8.56322 0.15998 10.4832 0C10.7509 2.29304 8.32323 3.9995 7.03096 3.7773Z" fill="black"/>
</svg>
