<svg width="14" height="14" viewBox="0 0 14 14" fill="none" xmlns="http://www.w3.org/2000/svg">
<path d="M0.76 3.857C1.35429 2.69727 2.26598 1.72236 3.39317 1.04123C4.52035 0.360099 5.81862 -0.000408498 7.14286 3.47362e-07C9.06786 3.47362e-07 10.685 0.6937 11.9214 1.8235L9.87357 3.8311C9.13286 3.1374 8.19143 2.7839 7.14286 2.7839C5.28214 2.7839 3.70714 4.0159 3.14643 5.67C3.00357 6.09 2.92214 6.538 2.92214 7C2.92214 7.462 3.00357 7.91 3.14643 8.33C3.70786 9.9848 5.28214 11.2161 7.14286 11.2161C8.10357 11.2161 8.92143 10.9676 9.56143 10.5476C9.93246 10.3082 10.2501 9.99756 10.4951 9.63445C10.7402 9.27134 10.9076 8.8633 10.9871 8.435H7.14286V5.7274H13.87C13.9543 6.1852 14 6.6626 14 7.1589C14 9.2911 13.2214 11.0859 11.87 12.3039C10.6886 13.3735 9.07143 14 7.14286 14C6.20474 14.0004 5.27574 13.8196 4.40896 13.4679C3.54218 13.1163 2.75461 12.6007 2.09126 11.9506C1.42791 11.3005 0.901783 10.5287 0.542953 9.67922C0.184124 8.82977 -0.000374901 7.91936 5.71939e-07 7C5.71939e-07 5.8702 0.275715 4.802 0.76 3.857Z" fill="black"/>
</svg>
