<svg width="24" height="16" viewBox="0 0 24 16" fill="none" xmlns="http://www.w3.org/2000/svg">
<path d="M2.8559 4.28008C3.33463 3.55356 3.77845 2.83699 4.27213 2.15028C4.56136 1.7472 4.90545 1.38394 5.25452 1.02566C5.66343 0.607658 6.17706 0.398659 6.76051 0.328992C8.67542 0.0951113 10.6003 -0.049198 12.5252 0.0154924C14.1508 0.0702304 15.7715 0.21454 17.3922 0.348897C17.9059 0.393682 18.3597 0.642492 18.7287 1.01073C19.6063 1.88654 20.3244 2.87182 20.8979 3.96658C20.9528 4.07606 21.0126 4.18056 21.0824 4.30994C21.3517 4.06113 21.5761 3.85213 21.5462 3.44408C21.5013 2.82206 21.626 2.72254 22.2643 2.71258C22.7031 2.70761 23.107 2.82206 23.4361 3.12063C23.5359 3.2102 23.6356 3.33461 23.6755 3.45901C23.8251 3.95663 23.6855 4.2353 23.1818 4.23032C22.8078 4.22534 22.4338 4.24525 22.0598 4.25022C21.9202 4.25022 21.8055 4.2552 21.7506 4.42937C21.6958 4.59358 21.7407 4.68813 21.8703 4.78765C22.349 5.16087 22.8128 5.54901 23.2965 5.91725C23.6655 6.19591 23.8451 6.54425 23.8151 7.00703C23.7204 8.45012 23.9598 9.88326 23.9897 11.3264C24.0146 12.4609 23.9897 13.5955 23.9647 14.7301C23.9498 15.2625 23.7503 15.4267 23.2117 15.4267C22.5535 15.4267 21.9002 15.4317 21.242 15.4267C20.7682 15.4218 20.6037 15.2824 20.5139 14.8196C20.479 14.6405 20.4291 14.4614 20.4092 14.2822C20.3942 14.123 20.3095 14.108 20.1748 14.0981C15.5272 13.7647 10.8746 13.9886 6.22693 13.9239C5.99754 13.919 5.76815 13.9787 5.53378 13.9936C4.97028 14.0334 4.41176 14.0732 3.84826 14.0931C3.67373 14.0981 3.59893 14.1479 3.57399 14.322C3.54906 14.536 3.49919 14.745 3.44932 14.954C3.37951 15.2526 3.21495 15.4068 2.91076 15.4118C2.13781 15.4218 1.36487 15.4218 0.591926 15.4068C0.252828 15.4019 0.0583455 15.1929 0.0533588 14.8495C0.0334119 13.5656 -0.0314157 12.2768 0.0184517 10.9979C0.068319 9.6046 0.242855 8.19136 0.188001 6.77315C0.178027 6.45965 0.337602 6.22079 0.576966 6.02672C1.09559 5.60872 1.60922 5.19072 2.13283 4.78268C2.25251 4.68813 2.2924 4.60353 2.24253 4.44927C2.18768 4.29003 2.09293 4.26018 1.94333 4.26018C1.5793 4.26018 1.21028 4.2552 0.846249 4.24027C0.63182 4.23032 0.392457 4.24525 0.297709 3.99146C0.202961 3.73768 0.247841 3.47892 0.422377 3.26494C0.671714 2.95642 1.02078 2.78723 1.40975 2.74742C1.64413 2.72254 1.88848 2.74742 2.12784 2.77727C2.36222 2.80216 2.46694 2.96637 2.47192 3.19527C2.47691 3.28485 2.48688 3.37939 2.46694 3.46896C2.37219 3.86208 2.62651 4.07108 2.8559 4.28008ZM12.0016 4.57368C12.0016 4.58861 12.0016 4.59856 12.0016 4.61349C13.3879 4.61349 14.7792 4.61846 16.1655 4.61349C17.2775 4.60851 18.3946 4.58861 19.5066 4.56372C20.0352 4.55377 20.2247 4.21042 19.9704 3.76256C19.5365 3.0012 19.0279 2.29956 18.4195 1.66759C18.1552 1.3939 17.846 1.16997 17.462 1.12021C16.7639 1.03561 16.0608 0.97092 15.3576 0.916182C12.5252 0.69723 9.6977 0.766896 6.87022 1.03561C6.5012 1.07044 6.14715 1.1849 5.86789 1.4337C5.075 2.13535 4.46662 2.9813 3.97293 3.91184C3.83829 4.17061 3.98789 4.4642 4.27712 4.52889C4.42672 4.56372 4.59128 4.57368 4.74587 4.57368C7.16444 4.57368 9.583 4.57368 12.0016 4.57368ZM11.1887 5.34499C8.41611 5.29522 5.53378 5.24049 2.65145 5.18575C2.45198 5.18077 2.08296 5.44451 2.0281 5.64853C1.95829 5.89734 2.10789 6.0317 2.2924 6.1561C3.37951 6.91248 4.54142 7.53451 5.76815 8.02715C5.98258 8.11174 6.17706 8.16151 6.41144 8.07193C6.58598 8.00227 6.78545 7.97739 6.96996 7.97241C7.83266 7.9326 8.69536 7.87289 9.55807 7.87786C11.7323 7.88284 13.9115 7.90772 16.0857 7.9326C16.4896 7.93758 16.9185 7.91767 17.2975 8.0371C17.7862 8.18639 18.1851 8.06198 18.599 7.86791C18.7037 7.81815 18.8134 7.77336 18.9182 7.72858C19.9055 7.2857 20.8381 6.75325 21.7257 6.13122C21.8903 6.01677 22.0199 5.88241 21.9551 5.65848C21.8903 5.43456 21.4863 5.15091 21.247 5.16087C20.7732 5.17579 20.2995 5.20565 19.8258 5.21063C16.9783 5.24546 14.1409 5.29522 11.1887 5.34499ZM20.6885 13.1775C20.6885 13.1725 20.6885 13.1675 20.6885 13.1626C21.1971 13.1626 21.7008 13.1675 22.2094 13.1626C22.5884 13.1576 22.8876 12.9984 23.0522 12.65C23.1519 12.441 23.2317 12.2221 23.2965 12.0031C23.5558 11.1671 23.3913 10.3261 23.3165 9.49015C23.2965 9.24631 23.0771 9.15674 22.8228 9.22143C21.3018 9.6046 19.7859 9.98776 18.2649 10.3709C18.1801 10.3908 18.0904 10.4356 18.0355 10.4953C17.6465 10.9133 17.1678 11.1721 16.6093 11.2368C15.8663 11.3264 15.1233 11.3861 14.3753 11.4209C12.0913 11.5204 9.80741 11.4906 7.52847 11.2716C6.89017 11.2119 6.32667 10.9631 5.88783 10.4754C5.83797 10.4207 5.75319 10.3859 5.67839 10.366C4.16741 9.98279 2.65643 9.6046 1.14545 9.22641C0.881156 9.16172 0.706621 9.26124 0.656753 9.53493C0.626833 9.72403 0.611873 9.91312 0.596913 10.1022C0.532085 10.9133 0.512138 11.7145 0.871183 12.4908C1.08063 12.9486 1.3898 13.1725 1.88848 13.1725C2.70131 13.1725 3.51914 13.1576 4.33197 13.1924C4.96529 13.2173 5.52879 13.0879 6.03245 12.6948C6.41144 12.4012 6.86025 12.2967 7.33897 12.2967C10.3111 12.3017 13.2881 12.3116 16.2602 12.2868C17.0132 12.2818 17.6864 12.4211 18.2848 12.8889C18.5691 13.1128 18.9082 13.1875 19.2672 13.1875C19.741 13.1775 20.2147 13.1775 20.6885 13.1775ZM7.08964 8.40534C6.88019 8.44515 6.67075 8.48993 6.46131 8.52477C6.21696 8.56458 6.1272 8.70889 6.1272 8.94277C6.1272 9.20153 6.12221 9.45531 6.12221 9.71408C6.1272 9.96786 6.20699 10.1868 6.41643 10.3461C6.74555 10.5998 7.11457 10.774 7.52847 10.7989C8.66544 10.8735 9.80242 10.983 10.9344 10.983C12.6548 10.978 14.3703 10.8934 16.0907 10.8387C16.5894 10.8238 17.0581 10.6944 17.467 10.3958C17.6914 10.2366 17.8161 10.0226 17.8161 9.74393C17.8111 9.45531 17.8211 9.16172 17.8061 8.8731C17.8011 8.77855 17.7463 8.63424 17.6765 8.60439C17.4471 8.51481 17.1977 8.47003 16.9584 8.41031C16.9434 8.4352 16.9285 8.4551 16.9135 8.47998C17.2277 8.70889 17.1229 9.03234 17.1429 9.32593C17.1628 9.63943 17.0232 9.87829 16.7489 9.98279C16.36 10.1321 15.9511 10.2913 15.5372 10.3212C13.4477 10.4655 11.3533 10.4754 9.25887 10.3709C8.66544 10.3411 8.06205 10.356 7.49855 10.1022C6.79043 9.78374 6.61091 9.04727 7.08964 8.40534ZM3.53908 7.80322C3.19001 7.61412 2.86588 7.41508 2.52179 7.26082C2.39712 7.20608 2.21261 7.20608 2.08795 7.25584C1.91341 7.33048 1.9184 7.5146 1.9533 7.68877C2.13283 8.61931 3.05038 9.28115 3.99288 9.14181C4.14248 9.12191 4.28211 9.04229 4.42672 8.98755C4.42174 8.96765 4.41176 8.94774 4.40678 8.92286C3.99288 8.95769 3.59394 8.92784 3.34959 8.53472C3.17505 8.266 3.33463 8.0371 3.53908 7.80322ZM19.4717 8.86812C19.4617 8.88803 19.4517 8.90793 19.4418 8.92286C19.5914 8.99253 19.736 9.09205 19.8956 9.13186C20.843 9.35579 21.9401 8.56955 22.0299 7.60417C22.0548 7.32551 21.8304 7.0966 21.5861 7.2011C21.217 7.35536 20.873 7.56436 20.494 7.76341C20.7483 7.97739 20.9178 8.18639 20.7932 8.48496C20.6635 8.79846 20.3843 8.91291 20.0751 8.93779C19.8756 8.94774 19.6712 8.893 19.4717 8.86812Z" fill="#222222"/>
<path d="M11.9469 4.47982C11.7524 4.43006 11.5429 4.4002 11.3584 4.31561C11.154 4.22603 11.154 4.04689 11.3584 3.95234C11.7524 3.76325 12.1563 3.76823 12.5552 3.94737C12.6251 3.97723 12.7048 4.08173 12.6999 4.14642C12.6949 4.21608 12.6101 4.31063 12.5353 4.33551C12.3508 4.39523 12.1563 4.43006 11.9469 4.47982Z" fill="#222222"/>
<path d="M2.96048 9.55546C2.70117 9.55546 2.44685 9.56541 2.18754 9.55546C1.76366 9.53555 1.54924 9.30665 1.54924 8.88865C1.54924 8.54031 1.54425 8.19198 1.56918 7.84365C1.59412 7.45551 1.8634 7.23655 2.25236 7.26144C3.03029 7.31617 3.77332 7.49034 4.49141 7.79886C4.9452 7.99293 5.05989 8.36615 4.79061 8.78415C4.71581 8.90358 4.64101 9.023 4.55623 9.13746C4.34679 9.42608 4.06255 9.57039 3.70849 9.57536C3.45915 9.57536 3.20982 9.57536 2.96048 9.57536C2.96048 9.57039 2.96048 9.56541 2.96048 9.55546Z" fill="#222222"/>
<path d="M20.9623 9.62521C20.703 9.62521 20.4487 9.62521 20.1894 9.62521C19.8752 9.62521 19.6309 9.47593 19.4414 9.24702C19.3217 9.10271 19.217 8.9385 19.1222 8.77428C18.9228 8.43093 19.0075 8.08259 19.3616 7.9134C20.1246 7.54517 20.9424 7.36602 21.7852 7.31626C22.1193 7.29636 22.3686 7.55512 22.3836 7.88852C22.3985 8.25178 22.4085 8.62002 22.4035 8.98328C22.3985 9.3764 22.1492 9.61526 21.7602 9.62023C21.4959 9.62521 21.2266 9.62023 20.9623 9.62023V9.62521Z" fill="#222222"/>
</svg>
