<svg width="34" height="17" viewBox="0 0 34 17" fill="none" xmlns="http://www.w3.org/2000/svg">
<path d="M10.1403 15.6503C10.1403 15.9603 10.1403 16.1906 10.1403 16.4652C7.09355 16.4652 4.06449 16.4652 1 16.4652C1 16.2083 1 15.9515 1 15.6592C2.2134 15.6592 3.40022 15.6592 4.63133 15.6592C4.63133 14.7381 4.63133 13.8524 4.63133 12.9047C4.32134 12.9047 4.0202 12.9047 3.70136 12.9047C3.70136 9.98191 3.70136 7.11227 3.70136 4.19835C6.18129 4.72976 8.61694 5.26118 11.1146 5.80145C11.1146 4.61462 11.1146 3.45437 11.1146 2.22326C11.4777 2.31183 11.7877 2.37382 12.0977 2.45354C16.7299 3.65808 21.362 4.86262 25.9942 6.07601C26.2245 6.13801 26.4282 6.15572 26.4282 6.50114C26.4105 9.02536 26.4193 11.5496 26.4193 14.0738C26.4193 14.1181 26.4105 14.1624 26.3928 14.2421C26.1448 14.2421 25.8879 14.2421 25.5868 14.2421C25.5868 11.7799 25.5868 9.31764 25.5868 6.82885C21.052 5.65088 16.5527 4.48177 11.9648 3.28609C11.9648 3.88836 11.9648 4.43748 11.9648 4.99547C11.9648 5.97859 11.9648 5.97859 12.9037 6.19115C15.2153 6.69599 17.5358 7.20084 19.8741 7.70568C19.8741 9.42392 19.8741 11.1333 19.8741 12.8958C17.2613 12.8958 14.6485 12.8958 12.0003 12.8958C12.0003 13.8258 12.0003 14.7115 12.0003 15.6238C17.527 15.6238 23.0714 15.6238 28.6335 15.6238C28.6335 11.4699 28.6335 7.32484 28.6335 3.18866C27.9604 3.09123 27.6239 3.23294 26.5522 4.09206C26.3573 3.9415 26.1625 3.79979 25.9322 3.62265C26.4547 2.94067 27.1456 2.55096 27.9693 2.32954C27.2253 1.90441 26.6142 1.93098 24.7719 2.43582C24.7188 2.32068 24.6568 2.20554 24.6125 2.0904C24.5594 1.96641 24.5239 1.84241 24.4885 1.71841C25.9853 1.04529 27.7213 0.921292 28.9613 1.90441C30.1215 0.788438 31.5298 0.965577 33 1.09843C32.938 1.39071 32.8937 1.6387 32.8671 1.7627C31.9372 1.86012 31.0781 1.93984 30.2278 2.04612C30.0595 2.07269 29.9001 2.22326 29.6521 2.37382C31.0249 2.80781 32.1675 3.37466 32.5129 4.88919C32.2383 4.94233 31.9903 4.98661 31.76 5.0309C31.1135 3.88836 30.7326 3.58722 29.5015 3.26837C29.5015 7.67025 29.5015 12.0544 29.5015 16.474C23.3548 16.474 17.2701 16.474 11.1412 16.474C11.1412 15.3049 11.1412 14.1447 11.1412 12.9578C9.26349 12.9578 7.43011 12.9578 5.55245 12.9578C5.55245 13.8347 5.55245 14.7292 5.55245 15.6592C7.07584 15.6503 8.58151 15.6503 10.1403 15.6503ZM11.1234 12.0721C11.1234 10.6285 11.1234 9.23793 11.1234 7.83854C11.956 7.93596 11.9648 7.93596 11.9648 8.70651C11.9648 9.66306 11.9648 10.6285 11.9648 11.585C11.9648 11.7444 11.9826 11.895 11.9914 12.0456C14.3739 12.0456 16.7122 12.0456 19.0415 12.0456C19.0415 10.8056 19.0415 9.60106 19.0415 8.37881C14.2145 7.33369 9.39635 6.29743 4.56933 5.25232C4.56933 7.56397 4.56933 9.81363 4.56933 12.0721C6.74813 12.0721 8.90036 12.0721 11.1234 12.0721Z" fill="#171717" stroke="#888888" stroke-width="0.1"/>
</svg>
