<svg width="18" height="17" viewBox="0 0 18 17" fill="none" xmlns="http://www.w3.org/2000/svg">
<path d="M0.272461 6.16699C0.272461 9.91113 3.41016 13.5938 8.36719 16.7578C8.55176 16.8721 8.81543 16.9951 9 16.9951C9.18457 16.9951 9.44824 16.8721 9.6416 16.7578C14.5898 13.5938 17.7275 9.91113 17.7275 6.16699C17.7275 3.05566 15.5918 0.858398 12.7441 0.858398C11.1182 0.858398 9.7998 1.63184 9 2.81836C8.21777 1.64062 6.88184 0.858398 5.25586 0.858398C2.4082 0.858398 0.272461 3.05566 0.272461 6.16699ZM1.6875 6.16699C1.6875 3.8291 3.19922 2.27344 5.23828 2.27344C6.89062 2.27344 7.83984 3.30176 8.40234 4.18066C8.63965 4.53223 8.78906 4.62891 9 4.62891C9.21094 4.62891 9.34277 4.52344 9.59766 4.18066C10.2041 3.31934 11.1182 2.27344 12.7617 2.27344C14.8008 2.27344 16.3125 3.8291 16.3125 6.16699C16.3125 9.43652 12.8584 12.9609 9.18457 15.4043C9.09668 15.4658 9.03516 15.5098 9 15.5098C8.96484 15.5098 8.90332 15.4658 8.82422 15.4043C5.1416 12.9609 1.6875 9.43652 1.6875 6.16699Z" fill="#888888"/>
</svg>
